<svg width="24" height="24" viewBox="0 0 24 24" fill="none" xmlns="http://www.w3.org/2000/svg">
<path d="M18.2367 24C17.9488 24 17.6609 23.9249 17.3491 23.7498L12.5034 21.097C12.3835 21.0219 12.2156 20.9719 12.0237 20.9719C11.8558 20.9719 11.6639 21.0219 11.5439 21.072L6.72231 23.7498C6.43445 23.9249 6.14659 24 5.81075 24C5.23503 24 4.6833 23.7247 4.29947 23.2743C3.91566 22.8238 3.77175 22.2232 3.86768 21.6225L4.80325 16.0167C4.85122 15.6664 4.73128 15.316 4.49138 15.0657L0.605303 11.1366C0.0535732 10.5861 -0.138333 9.78521 0.10155 9.03443C0.341409 8.28362 0.941138 7.75807 1.68477 7.63294L7.05814 6.80708C7.39398 6.75703 7.7058 6.5318 7.84973 6.23148L10.2486 1.12617C10.5844 0.425443 11.2561 0 11.9997 0C12.7433 0 13.415 0.425443 13.7508 1.12617L16.1497 6.23148C16.3176 6.55685 16.6054 6.75703 16.9413 6.80708L22.3147 7.63297C23.0583 7.7581 23.658 8.28365 23.8979 9.0094C24.1378 9.76018 23.9459 10.561 23.4181 11.1116L19.556 15.0657C19.2921 15.316 19.1962 15.6663 19.2441 16.0167L20.1557 21.5975C20.2517 22.1981 20.1077 22.7987 19.7239 23.2492C19.3641 23.7247 18.8124 24 18.2367 24Z" fill="url(#paint0_linear_555_182)"/>
<defs>
<linearGradient id="paint0_linear_555_182" x1="16.0078" y1="1.05294" x2="-0.882875" y2="22.8086" gradientUnits="userSpaceOnUse">
<stop stop-color="#F35656"/>
<stop offset="0.285" stop-color="#D1DE17"/>
<stop offset="0.39" stop-color="#15C520"/>
<stop offset="0.65" stop-color="#11A3A8"/>
<stop offset="0.88" stop-color="#0F2E94"/>
</linearGradient>
</defs>
</svg>
